<svg xmlns="http://www.w3.org/2000/svg" xml:space="preserve" width="2048" height="2048" style="shape-rendering:geometricPrecision;text-rendering:geometricPrecision;image-rendering:optimizeQuality;fill-rule:evenodd;clip-rule:evenodd"><defs><style>.fil2{fill:#635454}.fil10{fill:#3b3b3b}.fil9{fill:#7a5252}.fil7{fill:#1c51d6}.fil15{fill:#1c51d6}.fil3{fill:#7a5252}.fil13{fill:#dbde21;fill-rule:nonzero}</style></defs><g id="Layer_x0020_1"><g id="_308722968"><path id="_308723136" d="m1186.02 320.696 340.392 594.466 339.244 592.464 1 2c16.646 34.451 23.12 68.792 21.591 101.084-1.724 36.423-13.58 69.932-32.511 97.921-18.941 28.007-45.044 50.614-75.239 65.204-26.27 12.692-55.652 19.296-86.152 18.105v.062H350.283l-1.125-.125c-30.57-1.09-59.03-8.677-84.071-21.365-32.373-16.404-59.113-41.322-77.45-71.8-18.294-30.401-28.137-66.282-26.767-104.689 1.055-29.56 8.732-60.424 24.301-91.152l.75-1.5 335.661-586.208 342.472-598.1 3.5-4.874c14.66-17.115 30.566-31.35 47.244-42.792 38.051-26.106 80.12-37.695 120.9-35.901 41.145 1.812 80.65 17.23 113.185 45.101 13.23 11.333 25.277 24.688 35.764 39.975l1.374 2.125z" style="fill:#dbde21"/><path id="_308722944" d="M1104.01 370.659c-4.678-7.21-11.079-13.587-17.577-19.155-15.59-13.355-34.434-21.2-54.955-22.103-22.483-.989-43.958 6.523-62.369 19.155-7.017 4.814-18.544 12.617-23.571 19.62l-.624.868-674.312 1177.63c-7.788 15.806-13.16 33.073-13.793 50.767-.65 18.211 3.672 36.128 13.086 51.772 9.218 15.321 22.64 27.581 38.585 35.66 12.887 6.53 32.158 9.369 47.216 11.125l1342.4.012c14.096.55 27.957-2.488 40.644-8.618 15.078-7.285 28.108-18.685 37.484-32.547 9.806-14.5 15.31-31.2 16.138-48.682.885-18.681-3.062-36.463-11.355-53.19l-676.993-1182.32z" style="fill:#fbfbfc"/></g><g id="_381614608"><path id="_308722800" class="fil2" d="M1280.38 1553.93h34.605c2.144 10.21 20.707 18.191 43.295 18.191 22.027 0 40.227-7.59 43.104-17.436 3.208 1.404 5.465 4.61 5.465 8.323v45.104c0 4.993-4.085 9.078-9.078 9.078h-165.254c-4.993 0-9.078-4.085-9.078-9.078v-11.277c0-21.616 39.543-42.905 56.941-42.905z"/><path id="_308722608" class="fil2" d="M1221.7 1612.46h188.522v5.287H1221.7z"/><path id="_308722464" class="fil3" d="m954.685 891.976 1.527.573 36.202 13.576-40.517 40.516-16.291-22.08z"/><path id="_308722392" d="m882.146 1492.61 9.255 22.329c1.648 1.49-.118-5.036 2.903-4.722 8.393.871 16.868 1.754 22.891 5.26 1.16.674 4.363 1.805 8.155 3.142 17.776 6.273 44.504 15.705 58.173 46.656 12.356 27.982 47.903 43.825 62.513 50.336 9.058 4.039 14.683 6.54 17.002 15.239l5.87 22.02H545.772l1.58-19.002c4.896-58.9 15.283-61.157 34.076-65.237 6.347-1.379 15.303-3.323 31.312-34.952 2.014-3.98 3.868-7.658 5.58-11.058 13.948-27.684 19.379-38.46 28.858-47.29 6.239-5.813 12.445-9.145 22.604-14.6 11.307-6.071 28.368-15.233 57.127-34.625h.068c2.907-1.957 10.844-4.145 18.53-5.673 7.37-1.467 15.77-2.803 18.627-2.803 5.269 0 10.839 1.26 15.924 3.203 5.28 2.015 10.399 4.956 14.195 8.021 1.799 1.453 3.583 3 5.331 4.515 2.827 2.45 5.53 4.796 8.12 6.415 2.546 1.594 7.31 5.127 13.63 9.814 14.865 11.023 26.456 41.88 33.648 36.084l27.164 6.928z" style="fill:#1c51d6;fill-rule:nonzero"/><path id="_381617560" style="fill:#909090;fill-rule:nonzero" d="m1098.78 1207.95-240.987 192.02-16.521-11.67 240.988-192.02z"/><path id="_381617632" d="m834.806 1348.14 53.249 69.816 10.631 13.937-13.924 10.62-31.502 24.03a63.228 63.228 0 0 1-1.914 1.41c-.312.219-.967.652-1.947 1.288l-17.682 11.447c-29.181-57.488-9.742-11.475-67.581-56.734l-16.58.614c9.166-21.089 11.793-40.897 31.19-55.693l31.501-24.028 13.939-10.631 10.62 13.924z" style="fill:#bebebe;fill-rule:nonzero"/><path id="_381617464" class="fil7" d="m1322.63 1124.51.037.039c2.069 2.23 4.095 4.316 6.065 6.345 15.083 15.535 27.524 28.346 36.448 67.748 24.207 106.87-20.553 155.288-20.553 208.373 0 8.34 47.735 98.747 53.498 122.033 2.56 10.354 4.087 18.34 4.597 24.882-3.929 20.764-75.656 28.695-87.431 1.15-.404-.925-3.7-3.04-4.063-4.05l-.318-.955-70.334-98.647-.617-2.95-14.72-131.96-59.884 45.03c-2.259 2.45-6.15 7.278-7.729 14.885-2.1 10.11-.515 25.215 11.842 47.26 14.564 25.984 27.615 53.098 39.926 78.678 9.496 19.73 18.543 38.53 27.547 55.16l.274.547c1.85 3.764 3.91 7.271 5.97 10.78 7.574 12.901 15.172 25.845 15.172 44.231l-1.535 39.78c-24.43-3.245-25.984-24.53-51.628-23.068-18.05 1.028-24.076 16.51-33.865-2.921l-2.312-9.132c-30.895-56.071-99.072-92.553-149.98-186.697-9.32-15.965-13.422-37.043-12.264-57.26 1.17-20.404 7.692-40.582 19.614-54.672 14.347-16.959 30.425-35.212 47.473-53.81 11.82-12.892 23.703-25.502 35.342-37.454l-.77-.763-.203-.202 214.401-102.38z"/><path id="_381617296" d="M1270.3 878.071c42.922 0 78.14 0 91.546 69.06l.344 3.293c0 63.854-6.435 102.696-16.513 128.384-7.631 19.452-17.11 31.51-27.462 40.759a170.35 170.35 0 0 0 4.416 4.94l-165.67 79.108-48.73 23.27c-12.628-12.52-25.722-25.42-39.664-39.094-12.108-11.877-39.982-40.387-53.802-53.869l-21.357 115.041c-4.372 15.558-13.991 44.117-32.413 58.037-15.064 11.384-36.017 12.98-64.799-10.322-8.511-10.872-13.593-24.706-13.593-38.844 0-3.043.273-6.274.837-9.674l34.473-207.412-.012-.001c1.303-10.933 3.777-28.955 7.011-45.356 2.334-11.843 5.12-23.044 8.275-30.789 7.426-18.225 19.85-34.982 35.743-49.057 15.7-13.906 34.75-25.19 55.615-32.637 34.773-12.41 130.466-8.753 195.99-6.25 19.988.765 36.969 1.414 49.604 1.414h.161zm3.836 104.88-13.859 61.71c-.482 2.572-1.936 5.038-4.356 6.99-5.925 4.78-15.405 4.671-21.169-.243l-72.128-61.372c-3.107-2.28-5.065-5.611-5.065-9.32 0-6.877 6.72-12.45 15.013-12.45h86.845v.038c.89 0 1.792.067 2.698.205 8.128 1.235 13.51 7.703 12.021 14.442z" style="fill:#5f5f5f"/><path id="_381617128" class="fil9" d="M1019.04 1431.05"/><path id="_381616960" class="fil7" d="m1060.12 1045.52 86.8 162.89 104.52-39.87 71.23-44-193.92-141.549z"/><path id="_381616792" class="fil7" d="m1014.77 1133.92 112.45 83.9-18.01 10.03z"/><path id="_381616624" class="fil10" d="M1001.88 892.861a174.004 174.004 0 0 1 13.006-6.178c28.386 27.745 114.77 109.906 115.065 110.189l-9.432 9.914c-.307-.292-92.062-87.581-118.639-113.924z"/><path id="_381616456" class="fil10" d="M933.375 964.153a116.9 116.9 0 0 1 5.959-12.319c19.504 10.778 150.39 84.063 150.778 84.278l-9.646 10.021c-.388-.213-127.912-71.402-147.091-81.98z"/><path id="_381616264" d="M1319.06 1118.81c-.279.254-.559.508-.84.758a170.35 170.35 0 0 0 4.416 4.94l-23.962 11.442c-6.157 2.26-13.487 5.347-22.193 9.542-21.454 10.592-94.881 44.63-138.672 67.274l-29.573 14.12a7401.298 7401.298 0 0 0-8.449-8.364c24.695-17.923 141.112-71.077 170.745-85.357 21.96-10.581 37.628-14.027 48.528-14.355z" style="fill:#2f2f2f"/><path id="_381616144" d="M917.26 797.877a80.078 80.078 0 0 1 3.354 1.683l.077-.09c3.666-4.151 12.604-2.25 19.962 4.249 7.186 6.345 10.208 14.725 6.933 18.981 10.186 13.147 17.754 29.548 20.995 45.839 4.108 20.653 1.374 41.379-11.466 55.92-12.84 14.54-33.068 19.818-54.07 18.297-16.581-1.2-33.808-6.689-48.121-15.18-20.305-15.454-18.742-17.139-26.261-23.876a79.002 79.002 0 0 1-2.088-3.125l-3.21-5.056 3.94-4.462 80.6-91.277 3.94-4.462 5.415 2.56z" style="fill:#c9c9c9;fill-rule:nonzero"/><path id="_381615952" class="fil2" d="M925.839 803.526c8.786 5.404 15.404 12.195 21.641 19.232 18.388 21.65 42.368 36.85 30.62 51.961-34.946 44.954-90.16 17.997-118.14 3.414-4.492-2.34 65.879-74.607 65.879-74.607z"/><path id="_381615808" class="fil13" d="M826.02 776.836a91.564 91.564 0 0 1 20.738-10.485l20.71 42.046-5.317-45.975a84.02 84.02 0 0 1 12.411-1.056c18.638-.188 36.87 5.928 51.36 18.724.821.724 1.812 1.658 2.966 2.792a82.51 82.51 0 0 1 2.899 2.999l-.005.005.003.003 4.948 5.297-4.767 5.4-104.852 118.741-4.776 5.41-5.883-4.285-.09-.065-.005.007a82.362 82.362 0 0 1-3.281-2.471 78.376 78.376 0 0 1-3.081-2.551c-14.491-12.795-22.817-30.13-24.937-48.648a83.803 83.803 0 0 1-.488-12.446l45.453-.195-43.46-15.567a91.584 91.584 0 0 1 7.839-21.876l-8.248-7.283-5.968-5.269 5.27-5.968 21.077-23.869 5.27-5.968 5.967 5.27 8.247 7.283z"/><path id="_381615688" class="fil13" d="M826.02 776.836a91.564 91.564 0 0 1 20.738-10.485l20.71 42.046-5.317-45.975a84.02 84.02 0 0 1 12.411-1.056c18.638-.188 36.87 5.928 51.36 18.724.821.724 1.812 1.658 2.966 2.792a82.51 82.51 0 0 1 2.899 2.999l-.005.005.003.003 4.948 5.297-4.767 5.4-104.852 118.741-4.776 5.41-5.883-4.285-.09-.065-.005.007a82.362 82.362 0 0 1-3.281-2.471 78.376 78.376 0 0 1-3.081-2.551c-14.491-12.795-22.817-30.13-24.937-48.648a83.803 83.803 0 0 1-.488-12.446l45.453-.195-43.46-15.567a91.584 91.584 0 0 1 7.839-21.876l-8.248-7.283-5.968-5.269 5.27-5.968 21.077-23.869 5.27-5.968 5.967 5.27 8.247 7.283z"/><path id="_381615616" style="fill:#9c9c9d;fill-rule:nonzero" d="m804.373 917.026 126.464-143.217 11.935 10.539-126.464 143.217z"/><path id="_381615520" class="fil15" d="m830.025 850.084-40.283-14.43a85.422 85.422 0 0 0-1.31 14.608l41.593-.178z"/><path id="_381615424" class="fil15" d="m848.246 769.373 19.223 39.025-4.874-42.143a85.293 85.293 0 0 0-14.349 3.118z"/><path id="_381615328" class="fil15" d="M794.359 812.601a88.233 88.233 0 0 1 13.354-20.07 88.271 88.271 0 0 1 18.262-15.735l-8.203-7.243-5.967-5.27-5.27 5.968-21.077 23.87-5.27 5.967 5.968 5.27 8.203 7.243z"/><path id="_381615160" class="fil3" d="M857.768 882.523c7.548-11.5 15.325-.746 23.549 4.87 8.225 5.617 10.61 12.198 7.766 16.363-2.845 4.164-5.477 2.42-13.701-3.196-8.225-5.618-25.161-6.538-17.614-18.037z"/><g><path id="_381614992" class="fil9" d="M1139.89 1600.18h34.605c2.144 10.21 20.708 18.191 43.295 18.191 22.027 0 40.228-7.59 43.104-17.436 3.21 1.403 5.465 4.61 5.465 8.322v45.105c0 4.993-4.084 9.078-9.078 9.078h-165.254c-4.993 0-9.078-4.085-9.078-9.078v-11.277c0-21.616 39.545-42.905 56.941-42.905z"/><path id="_381614920" class="fil2" d="M1081.22 1658.71h188.522v5.287H1081.22z"/></g><path id="_381614680" d="M1333.35 1135.68s36.765 85.996-35.673 133.417c-38.453 25.173-60.314 39.855-72.363 48.091l14.647 131.288.618 2.95 70.331 98.65.32.95c.247.695 1.88 1.91 3.007 2.901.515.454.926.861 1.053 1.153l.01.021a19.942 19.942 0 0 0 2.457 4.206c16.624 21.91 78.448 14.59 84.634-4.1.139-.422.25-.847.331-1.28-.513-6.538-2.04-14.527-4.594-24.882-5.768-23.287-53.5-113.691-53.5-122.034 0-53.084 44.762-101.503 20.551-208.37-7.997-35.307-18.816-49.265-31.83-62.961z" style="fill:#4a4a4a"/></g><path style="fill:none" d="M0 0h2048v2048H0z"/></g></svg>